HIERARCHY
ROOT Hips
{
	OFFSET 0.00000 0.00000 0.00000
	CHANNELS 6 Xposition Yposition Zposition Zrotation Yrotation Xrotation 
	JOINT LHipJoint
	{
		OFFSET 0 0 0
		CHANNELS 3 Zrotation Yrotation Xrotation
		JOINT LeftUpLeg
		{
			OFFSET 1.36306 -1.79463 0.83929
			CHANNELS 3 Zrotation Yrotation Xrotation
			JOINT LeftLeg
			{
				OFFSET 2.44811 -6.72613 0.00000
				CHANNELS 3 Zrotation Yrotation Xrotation
				JOINT LeftFoot
				{
					OFFSET 2.56220 -7.03959 0.00000
					CHANNELS 3 Zrotation Yrotation Xrotation
					JOINT LeftToeBase
					{
						OFFSET 0.15764 -0.43311 2.32255
						CHANNELS 3 Zrotation Yrotation Xrotation
						End Site
						{
							OFFSET 0.00000 -0.00000 1.18966
						}
					}
				}
			}
		}
	}
	JOINT RHipJoint
	{
		OFFSET 0 0 0
		CHANNELS 3 Zrotation Yrotation Xrotation
		JOINT RightUpLeg
		{
			OFFSET -1.30552 -1.79463 0.83929
			CHANNELS 3 Zrotation Yrotation Xrotation
			JOINT RightLeg
			{
				OFFSET -2.54253 -6.98555 0.00000
				CHANNELS 3 Zrotation Yrotation Xrotation
				JOINT RightFoot
				{
					OFFSET -2.56826 -7.05623 0.00000
					CHANNELS 3 Zrotation Yrotation Xrotation
					JOINT RightToeBase
					{
						OFFSET -0.16473 -0.45259 2.36315
						CHANNELS 3 Zrotation Yrotation Xrotation
						End Site
						{
							OFFSET -0.00000 -0.00000 1.21082
						}
					}
				}
			}
		}
	}
	JOINT LowerBack
	{
		OFFSET 0 0 0
		CHANNELS 3 Zrotation Yrotation Xrotation
		JOINT Spine
		{
			OFFSET 0.02827 2.03559 -0.19338
			CHANNELS 3 Zrotation Yrotation Xrotation
			JOINT Spine1
			{
				OFFSET 0.05672 2.04885 -0.04275
				CHANNELS 3 Zrotation Yrotation Xrotation
				JOINT Neck
				{
					OFFSET 0 0 0
					CHANNELS 3 Zrotation Yrotation Xrotation
					JOINT Neck1
					{
						OFFSET -0.05417 1.74624 0.17202
						CHANNELS 3 Zrotation Yrotation Xrotation
						JOINT Head
						{
							OFFSET 0.10407 1.76136 -0.12397
							CHANNELS 3 Zrotation Yrotation Xrotation
							End Site
							{
								OFFSET 0.03720 1.77044 -0.06241
							}
						}
					}
				}
				JOINT LeftShoulder
				{
					OFFSET 0 0 0
					CHANNELS 3 Zrotation Yrotation Xrotation
					JOINT LeftArm
					{
						OFFSET 3.36241 1.20089 -0.31121
						CHANNELS 3 Zrotation Yrotation Xrotation
						JOINT LeftForeArm
						{
							OFFSET 4.98300 -0.00000 -0.00000
							CHANNELS 3 Zrotation Yrotation Xrotation
							JOINT LeftHand
							{
								OFFSET 3.48356 -0.00000 -0.00000
								CHANNELS 3 Zrotation Yrotation Xrotation
								JOINT LeftFingerBase
								{
									OFFSET 0 0 0
									CHANNELS 3 Zrotation Yrotation Xrotation
									JOINT LeftHandIndex1
									{
										OFFSET 0.71526 -0.00000 -0.00000
										CHANNELS 3 Zrotation Yrotation Xrotation
										End Site
										{
											OFFSET 0.57666 -0.00000 -0.00000
										}
									}
								}
								JOINT LThumb
								{
									OFFSET 0 0 0
									CHANNELS 3 Zrotation Yrotation Xrotation
									End Site
									{
										OFFSET 0.58547 -0.00000 0.58547
									}
								}
							}
						}
					}
				}
				JOINT RightShoulder
				{
					OFFSET 0 0 0
					CHANNELS 3 Zrotation Yrotation Xrotation
					JOINT RightArm
					{
						OFFSET -3.13660 1.37405 -0.40465
						CHANNELS 3 Zrotation Yrotation Xrotation
						JOINT RightForeArm
						{
							OFFSET -5.24190 -0.00000 -0.00000
							CHANNELS 3 Zrotation Yrotation Xrotation
							JOINT RightHand
							{
								OFFSET -3.44417 -0.00000 -0.00000
								CHANNELS 3 Zrotation Yrotation Xrotation
								JOINT RightFingerBase
								{
									OFFSET 0 0 0
									CHANNELS 3 Zrotation Yrotation Xrotation
									JOINT RightHandIndex1
									{
										OFFSET -0.62253 -0.00000 -0.00000
										CHANNELS 3 Zrotation Yrotation Xrotation
										End Site
										{
											OFFSET -0.50190 -0.00000 -0.00000
										}
									}
								}
								JOINT RThumb
								{
									OFFSET 0 0 0
									CHANNELS 3 Zrotation Yrotation Xrotation
									End Site
									{
										OFFSET -0.50956 -0.00000 0.50956
									}
								}
							}
						}
					}
				}
			}
		}
	}
}
MOTION
Frames: 15
Frame Time: 0.00694444
0.00 0.00 0.00 -183.8220 -177.4440 -225.7930 0.0000 0.0000 0.0000 -13.1905 -7.5504 -36.9146 5.4702 13.8945 42.8163 0.9043 -8.5978 -17.1163 0.0004 0.1231 0.3383 0.0000 0.0000 0.0000 24.0945 13.4475 -35.5972 -4.2930 -12.5405 37.6717 0.0023 -2.7565 -3.7907 -0.5511 4.7555 -13.2124 1.0122 2.6436 27.1289 5.5593 4.0380 10.7878 4.3284 1.9361 -3.3086 -10.2243 -10.3941 -11.7678 15.5911 -10.8747 -22.5078 6.3924 -5.1951 -3.2826 -0.0000 0.0000 0.0000 -146.1305 -83.3280 109.1090 15.3748 -24.6656 -3.3808 -0.0000 -0.0000 18.6648 -4.9441 -6.0163 0.5195 -7.1250 0.0000 -0.0000 -22.9585 23.8867 12.7092 -0.0000 0.0000 0.0000 38.5080 81.1596 -4.2452 -17.8508 27.9658 -4.4791 0.0000 0.0000 20.2409 -6.0335 -16.9911 1.7691 7.1250 -0.0000 -0.0000 20.4293 -45.9995 -0.5258
0.00 0.00 0.00 -183.4540 -181.5870 -222.8700 0.0000 0.0000 0.0000 -15.8896 -1.0727 -21.9853 5.8755 14.3066 44.4800 0.8679 -15.8785 -18.7033 0.0149 0.7890 2.1683 0.0000 0.0000 0.0000 24.7861 7.3820 -21.8179 -6.0435 -14.4703 45.1559 -0.6271 -2.6876 -16.1733 -0.0089 -0.6086 1.6724 -1.9752 -0.1010 19.4478 2.4000 -0.3597 4.9014 3.7856 -0.1558 -5.5506 -7.2469 -6.5516 0.2568 12.4580 -6.9878 -24.3853 5.6607 -3.7074 -6.6273 0.0000 0.0000 0.0000 -84.0731 -24.9060 47.7362 72.8931 -58.8648 -45.2414 -0.0000 -0.0000 24.0529 -8.4028 3.3754 -0.4983 -7.1250 0.0000 -0.0000 -27.5726 32.2963 9.5717 0.0000 0.0000 0.0000 84.3081 24.3477 47.6889 -77.8103 59.4310 -49.4636 0.0000 0.0000 21.4727 -7.4103 -25.7058 3.2288 7.1250 -0.0000 -0.0000 23.4629 -54.2950 -5.5933
0.00 0.00 0.00 -185.5270 -183.4120 -219.8380 0.0000 0.0000 0.0000 -14.0547 -2.0033 -19.4597 5.3847 13.8043 42.4593 0.7399 -18.8867 -19.0498 0.0399 1.2889 3.5440 0.0000 0.0000 0.0000 26.8100 6.6749 -19.3209 -5.5159 -13.9422 43.0065 -0.9607 -4.2002 -20.4875 -0.0264 -1.0495 2.8851 -1.3865 -0.6157 16.3988 1.4079 -0.9630 4.4887 2.4632 -0.4707 -4.3543 -6.5603 -7.8782 2.4325 12.6706 -8.6334 -28.4168 6.0286 -4.5921 -8.2066 0.0000 -0.0000 0.0000 -87.2696 -12.0056 44.4238 94.7831 -59.9134 -64.1410 -0.0000 -0.0000 31.1869 -12.0195 -1.0802 0.2300 -7.1250 0.0000 -0.0000 -28.8649 28.0825 13.5359 0.0000 -0.0000 0.0000 82.4747 13.8416 51.3163 -95.5500 59.8833 -64.8045 0.0000 0.0000 19.7315 -10.5347 -27.1070 4.8434 7.1250 -0.0000 -0.0000 21.2781 -56.1887 -6.0316
0.00 0.00 0.00 -188.7560 -189.5860 -217.0190 0.0000 0.0000 0.0000 -13.6577 -2.8169 -17.9992 4.8033 13.1588 39.9658 -0.1615 -23.7919 -15.6391 0.0453 1.3729 3.7754 0.0000 0.0000 0.0000 25.9833 7.7869 -14.8146 -4.8322 -13.1923 40.0926 -0.7150 15.8517 -17.5278 -5.8528 -14.2841 44.3879 -4.7493 -1.5446 9.6357 1.1813 -2.3945 7.2604 4.0647 -1.4195 2.4311 -7.3945 -10.1364 5.0317 13.9185 -11.5794 -36.1650 7.5829 -5.8983 -11.0515 0.0000 -0.0000 0.0000 -89.1485 -4.8748 44.7768 114.0014 -57.7073 -80.6258 -0.0000 -0.0000 36.2242 -15.6476 -2.2035 0.6170 -7.1250 0.0000 -0.0000 -30.9381 26.8326 15.9446 0.0000 -0.0000 0.0000 76.6033 6.9717 55.5441 -110.3696 58.3727 -77.5442 0.0000 0.0000 16.2966 -13.7421 -31.5834 7.2988 7.1250 -0.0000 -0.0000 21.2544 -61.0465 -8.5278
0.00 0.00 0.00 -182.5540 -190.2890 -210.9180 0.0000 0.0000 0.0000 -17.9620 -5.3078 -15.9031 3.7653 11.8414 35.1732 -1.6216 -27.7689 -8.1741 0.8104 5.7448 16.0458 0.0000 0.0000 0.0000 21.5779 3.0240 -17.5145 -4.4886 -12.7837 38.5641 -1.8510 2.8793 -24.9830 -0.7660 -5.5888 15.5960 -7.6425 -0.1638 9.2044 -3.7614 -1.0170 2.6379 0.4918 -0.4843 -2.3462 -7.3172 -11.3777 11.5731 16.5178 -13.0410 -37.4792 9.3897 -6.8884 -12.4518 0.0000 0.0000 0.0000 -88.2101 11.7214 43.9949 130.6987 -52.7098 -94.3827 -0.0000 -0.0000 39.8510 -20.2583 -4.5208 1.6663 -7.1250 0.0000 -0.0000 -33.1023 24.3634 19.9423 0.0000 0.0000 0.0000 73.3866 -0.7111 57.0995 -126.4655 54.3252 -90.9782 0.0000 0.0000 1.6874 14.9979 -34.7230 -8.6766 7.1250 -0.0000 -0.0000 51.8548 -56.9973 -18.5807
0.00 0.00 0.00 -184.5650 -186.5480 -210.8060 0.0000 0.0000 0.0000 -12.8857 -7.2921 -15.1520 4.0364 12.2087 36.4743 -2.2937 -29.4130 -4.4686 1.6747 8.1529 23.1793 0.0000 0.0000 0.0000 26.4319 5.2032 -15.5775 -4.1320 -12.3340 36.9241 -1.5304 -3.3235 -24.7671 -0.2670 -3.3238 9.1815 -4.7614 0.4045 8.0406 -3.4611 0.0327 1.6023 -0.9123 0.0472 -2.8499 -10.4541 -9.9555 21.7349 20.0004 -11.7109 -40.6199 13.1070 -6.2126 -15.8151 0.0000 -0.0000 0.0000 -87.0414 14.8665 44.5783 131.8811 -52.2080 -95.3204 -0.0000 -0.0000 40.2308 -20.2300 -4.7298 1.7405 -7.1250 0.0000 -0.0000 -33.0275 24.1803 20.0546 0.0000 -0.0000 0.0000 70.3369 18.5629 43.2425 -138.8866 48.7159 -100.7283 0.0000 -0.0000 -5.6105 -9.4312 -28.8131 4.5772 7.1250 -0.0000 -0.0000 23.5560 -57.5295 -7.5047
0.00 0.00 0.00 -186.1130 -185.1520 -211.7690 0.0000 0.0000 0.0000 -10.6441 -8.7609 -13.6557 4.1091 12.3042 36.8168 -2.6343 -29.8917 -1.7484 2.3238 9.5103 27.4051 0.0000 0.0000 0.0000 28.6830 3.9557 -14.4902 -3.9762 -12.1286 36.1885 -1.2880 -4.9794 -23.7582 -0.0963 -2.0010 5.5083 -3.3256 -0.1876 9.4952 -2.7178 -0.6897 1.6638 -0.8646 -0.3153 -3.5895 -11.1221 -9.4800 21.1244 19.5045 -11.4097 -39.2804 12.6052 -6.0344 -15.0690 0.0000 -0.0000 0.0000 -88.7278 15.6476 41.7430 132.5899 -51.8960 -95.8793 -0.0000 -0.0000 41.7449 -21.0518 -6.5073 2.4977 -7.1250 0.0000 -0.0000 -33.0123 22.5073 21.6584 0.0000 -0.0000 0.0000 61.2396 41.8935 27.0901 -133.7078 51.3861 -96.7559 0.0000 -0.0000 -5.0301 -36.8093 -28.6435 19.7343 7.1250 -0.0000 -0.0000 -8.0845 -64.1080 3.7547
0.00 0.00 0.00 -187.4330 -185.1220 -211.9130 0.0000 0.0000 0.0000 -9.7877 -9.2811 -13.6407 4.1695 12.3826 37.0992 -2.8058 -30.2289 -0.4860 2.6743 10.1481 29.4578 0.0000 0.0000 0.0000 29.3392 2.2681 -14.6691 -3.8984 -12.0239 35.8167 -1.3017 -4.0499 -23.3527 -0.0611 -1.5946 4.3867 -1.3852 0.4537 8.9913 -2.1529 0.4133 2.1993 -1.4942 0.2135 -2.7537 -11.3756 -10.2523 22.5838 19.6154 -12.8174 -40.9304 13.3031 -6.4870 -15.8420 0.0000 0.0000 0.0000 -88.2864 13.0955 44.9119 129.9427 -53.0186 -93.7801 -0.0000 -0.0000 41.5962 -20.8099 -6.7313 2.5507 -7.1250 0.0000 -0.0000 -32.8168 22.3333 21.6365 0.0000 0.0000 0.0000 37.6166 55.4655 -1.2183 -120.0534 56.2957 -85.7034 0.0000 -0.0000 -7.7454 -53.1882 -29.5360 33.3723 7.1250 -0.0000 -0.0000 -37.3402 -70.1101 23.4807
0.00 0.00 0.00 -186.6110 -187.1890 -211.4110 0.0000 0.0000 0.0000 -12.0610 -10.0630 -13.9584 4.1028 12.2960 36.7872 -2.8311 -29.8104 1.0382 2.9510 10.6153 30.9930 0.0000 0.0000 0.0000 27.1011 2.0866 -15.3092 -3.9596 -12.1065 36.1097 -1.2440 -5.0637 -23.4518 -0.0851 -1.8812 5.1775 -2.6269 0.3972 8.6757 -2.6628 0.2275 2.2902 -1.3005 0.1258 -2.4896 -10.2667 -10.4814 21.8516 18.3989 -13.0317 -39.9644 12.2975 -6.6265 -15.4012 -0.0000 0.0000 0.0000 -88.2617 12.1838 45.5424 128.8837 -53.4359 -92.9318 -0.0000 -0.0000 41.9168 -22.0864 -7.5822 3.0648 -7.1250 0.0000 -0.0000 -33.3012 21.4278 22.9903 -0.0000 0.0000 0.0000 11.4593 59.7119 -28.4010 -103.3603 59.3147 -71.5437 0.0000 -0.0000 -9.6754 -59.6643 -33.3259 43.1933 7.1250 -0.0000 -0.0000 -63.1374 -75.1306 48.7412
0.00 0.00 0.00 -189.3250 -187.1690 -211.7590 0.0000 0.0000 0.0000 -9.5487 -11.1932 -14.0417 4.1605 12.3710 37.0574 -3.0481 -30.2298 3.0548 3.1987 11.0100 32.3137 0.0000 0.0000 0.0000 29.7393 2.1546 -14.7862 -3.8122 -11.9062 35.4011 -0.9410 -8.4260 -23.2207 -0.0786 -1.8080 4.9752 0.3507 0.0997 9.6422 -2.2340 0.0911 2.0062 -2.5276 0.0387 -3.3165 -9.0257 -10.9987 22.1478 17.6810 -13.5847 -40.2973 11.9466 -6.8813 -15.7411 -0.0000 -0.0000 0.0000 -87.7890 12.6897 46.4190 129.2222 -53.3044 -93.2034 -0.0000 -0.0000 42.1423 -22.7881 -8.1849 3.4229 -7.1250 0.0000 -0.0000 -33.5231 20.8019 23.8333 -0.0000 -0.0000 0.0000 -12.6660 57.1721 -52.1133 -82.3216 59.7760 -53.3553 0.0000 -0.0000 -10.8236 -59.0460 -34.1872 43.1328 7.1250 -0.0000 -0.0000 -63.0898 -75.8449 49.4590
0.00 0.00 0.00 -189.8840 -189.5830 -211.5650 0.0000 0.0000 0.0000 -10.4426 -12.4828 -14.2460 4.0551 12.2333 36.5624 -3.3897 -30.6212 9.4922 4.0517 12.2289 36.5467 0.0000 0.0000 0.0000 28.9085 0.7064 -15.3125 -3.8264 -11.9258 35.4699 -0.3628 -13.5150 -22.9803 -0.0205 0.9239 -2.5394 0.7154 -0.2237 9.7973 -2.8968 -0.3217 2.2028 -3.3752 -0.1681 -3.2228 -6.9976 -11.9366 23.0706 17.4789 -14.3488 -42.5595 12.2539 -7.2202 -17.2672 0.0000 0.0000 0.0000 -85.1550 10.3207 49.4772 125.2190 -54.7507 -89.9630 -0.0000 -0.0000 41.0956 -21.3378 -7.0968 2.7631 -7.1250 0.0000 -0.0000 -33.0161 21.9486 22.1994 0.0000 0.0000 0.0000 -38.4301 47.2767 -76.8240 -49.2122 52.6728 -25.5464 0.0000 -0.0000 -4.5576 -56.5237 -29.0183 36.2619 7.1250 -0.0000 -0.0000 -44.9897 -70.4463 29.1937
0.00 0.00 0.00 -191.8760 -190.2730 -211.5240 0.0000 0.0000 0.0000 -8.3748 -14.2601 -14.7673 4.1454 12.3515 36.9869 -2.5675 -28.1336 19.9234 5.0084 13.3933 40.8590 0.0000 0.0000 0.0000 30.3620 -0.2138 -15.6827 -3.8183 -11.9146 35.4305 1.3627 -22.0294 -18.0635 -0.6019 4.9662 -13.8122 3.0235 -0.1581 10.9610 -3.4472 -0.0083 1.6676 -5.3332 -0.0699 -4.4053 -5.6531 -12.4795 18.7576 17.2727 -14.3318 -37.2611 10.3360 -7.8017 -13.8097 -0.0000 0.0000 0.0000 -80.8669 9.0202 54.7532 118.6169 -56.6674 -84.5057 -0.0000 -0.0000 39.4812 -17.9626 -6.4244 2.0775 -7.1250 0.0000 -0.0000 -31.2479 22.8798 19.6886 -0.0000 0.0000 0.0000 -61.7251 25.7928 -92.0888 -12.4370 20.4568 -2.2527 0.0000 0.0000 9.6626 -13.9764 -15.8844 3.8970 7.1250 -0.0000 -0.0000 12.8872 -45.9155 -0.2961
0.00 0.00 0.00 -189.1670 -178.0180 -212.2280 0.0000 0.0000 0.0000 -7.1265 -5.0012 -16.9382 4.9361 13.3115 40.5460 -0.9354 -16.8907 7.9539 3.1748 10.9728 32.1880 0.0000 0.0000 0.0000 31.7258 0.1205 -14.3090 -3.2538 -11.0949 32.6008 -0.0279 -4.3447 -7.1690 -0.1196 2.2294 -6.1400 4.8704 2.4387 12.1633 -1.3265 3.8375 0.8865 -4.7746 1.7653 -5.4701 -14.7372 -11.4266 -6.0881 14.9925 -14.1894 -5.5191 6.2008 -6.7898 1.5259 0.0000 0.0000 0.0000 -79.5032 6.9513 64.0747 108.1372 -58.7198 -75.6398 -0.0000 -0.0000 36.0293 -9.2460 2.0737 -0.3375 -7.1250 0.0000 -0.0000 -27.8071 31.0766 10.6101 0.0000 0.0000 0.0000 -69.5881 25.3938 -78.9646 -4.8523 8.3351 -0.3538 0.0000 -0.0000 -2.1798 -8.8640 -8.5856 1.3337 7.1250 -0.0000 -0.0000 15.4140 -38.2305 2.6447
0.00 0.00 0.00 -191.2910 -177.3300 -211.2300 0.0000 0.0000 0.0000 -5.0974 -8.8833 -18.2589 4.9813 13.3627 40.7420 -0.0253 -6.3558 8.3705 3.7945 11.8818 35.3150 0.0000 0.0000 0.0000 32.2451 0.9742 -15.2633 -3.0400 -10.7596 31.4732 -0.0001 0.2373 -0.2434 -0.0119 -0.7042 1.9353 6.4980 2.2090 10.5004 -0.3291 3.7363 -0.3424 -4.5651 1.6413 -5.8213 -12.7442 -9.5792 -19.6189 9.8770 -11.5592 15.3387 3.7706 -5.1847 9.3887 -0.0000 0.0000 0.0000 -95.8925 -23.3385 67.8244 119.0347 -56.5617 -84.8545 -0.0000 -0.0000 25.6520 -4.8494 5.8763 -0.4977 -7.1250 0.0000 -0.0000 -25.6626 34.7781 7.0451 -0.0000 0.0000 0.0000 -74.2810 32.3886 -91.3327 -4.7120 8.0979 -0.3337 0.0000 0.0000 9.5913 -7.7502 -12.1012 1.6343 7.1250 -0.0000 -0.0000 17.2705 -41.5406 1.5245
0.00 0.00 0.00 -189.8240 -177.9980 -211.1270 0.0000 0.0000 0.0000 -5.9823 -8.1007 -18.3330 4.6837 13.0185 39.4378 0.0673 -4.2341 8.1834 3.5582 11.5481 34.1515 0.0000 0.0000 0.0000 30.4874 4.8358 -14.6180 -3.0173 -10.7230 31.3513 -0.0048 1.1050 2.1565 -0.8040 -5.7227 15.9818 6.4680 2.0169 11.2200 0.0408 3.5764 -0.9091 -4.1955 1.5106 -6.8802 -13.8981 -8.6055 -23.9779 9.0996 -9.4194 20.4737 3.9957 -4.2449 11.7886 -0.0000 0.0000 0.0000 -121.5464 -67.3465 85.0257 105.1146 -59.1189 -73.0509 -0.0000 -0.0000 19.1166 35.8827 0.2983 0.2158 -7.1250 0.0000 -0.0000 7.3579 30.3041 -2.6594 -0.0000 0.0000 0.0000 -76.0568 33.7827 -73.3095 -6.2894 10.7439 -0.5920 0.0000 -0.0000 -7.8769 -8.1608 -16.0541 2.2710 7.1250 -0.0000 -0.0000 18.1847 -45.3717 -0.1726
